<?xml version="1.0" encoding="UTF-8"?>
<!DOCTYPE svg PUBLIC "-//W3C//DTD SVG 1.1//EN" "http://www.w3.org/Graphics/SVG/1.1/DTD/svg11.dtd">
<!-- Creator: CorelDRAW X6 -->
<svg xmlns="http://www.w3.org/2000/svg" xml:space="preserve" width="34px" height="34px" version="1.1" style="shape-rendering:geometricPrecision; text-rendering:geometricPrecision; image-rendering:optimizeQuality; fill-rule:evenodd; clip-rule:evenodd"
viewBox="0 0 311 311"
 xmlns:xlink="http://www.w3.org/1999/xlink">
 <defs>
  <style type="text/css">
   <![CDATA[
    .str0 {stroke:#203C68;stroke-width:14.5706;stroke-linecap:round;stroke-linejoin:round}
    .fil0 {fill:none}
    .fil2 {fill:#498FC7}
    .fil1 {fill:#EB5352}
    .fil3 {fill:#FBDE00}
   ]]>
  </style>
 </defs>
 <g id="Layer_x0020_1">
  <metadata id="CorelCorpID_0Corel-Layer"/>
  <rect class="fil0" width="311" height="311"/>
  <rect class="fil1 str0" x="57" y="37" width="237" height="237" rx="15" ry="15"/>
  <g id="_780870368">
   <rect class="fil2 str0" x="17" y="62" width="80.8833" height="41.621" rx="40" ry="20"/>
   <rect class="fil2 str0" x="17" y="135" width="80.8833" height="41.621" rx="40" ry="20"/>
   <rect class="fil2 str0" x="17" y="207" width="80.8833" height="41.621" rx="40" ry="20"/>
  </g>
  <path class="fil3 str0" d="M183 136c-31,0 -61,24 -61,48 0,25 0,22 0,31 0,9 19,19 36,10 7,6 15,9 25,9 9,0 18,-3 25,-9 16,9 35,-1 35,-10 0,-9 0,-6 0,-31 0,-24 -29,-48 -60,-48z"/>
  <circle class="fil3 str0" cx="183" cy="108" r="36"/>
 </g>
</svg>
