<?xml version="1.0" encoding="UTF-8"?>
<!DOCTYPE svg PUBLIC "-//W3C//DTD SVG 1.1//EN" "http://www.w3.org/Graphics/SVG/1.1/DTD/svg11.dtd">
<!-- Creator: CorelDRAW X6 -->
<svg xmlns="http://www.w3.org/2000/svg" xml:space="preserve" width="22px" height="22px" version="1.1" style="shape-rendering:geometricPrecision; text-rendering:geometricPrecision; image-rendering:optimizeQuality; fill-rule:evenodd; clip-rule:evenodd"
viewBox="0 0 346 346"
 xmlns:xlink="http://www.w3.org/1999/xlink">
 <defs>
  <style type="text/css">
   <![CDATA[
    .fil0 {fill:none}
    .fil1 {fill:#00A1F1}
    .fil2 {fill:#333333}
    .fil3 {fill:white}
   ]]>
  </style>
 </defs>
 <g id="Layer_x0020_1">
  <metadata id="CorelCorpID_0Corel-Layer"/>
  <rect class="fil0" width="346" height="346"/>
  <path class="fil1" d="M173 155c53,0 95,43 95,95 0,53 -42,96 -95,96 -53,0 -96,-43 -96,-96 0,-52 43,-95 96,-95z"/>
  <path class="fil2" d="M89 187l-49 -109c-2,-4 -2,-9 1,-12l52 -61 64 141c-28,4 -52,19 -68,41zm168 0l49 -109c2,-4 1,-9 -2,-12l-52 -61 -63 141c28,4 52,19 68,41zm-13 -187l-142 0 34 75 74 0 34 -75z"/>
  <path class="fil3" d="M177 177l17 44 47 3c2,0 4,1 4,3 1,2 0,4 -1,5l-36 30 11 45c1,2 0,4 -1,5 -2,1 -4,1 -6,0l-39 -25 -39 25c-2,1 -4,1 -6,0 -1,-1 -2,-3 -2,-5l12 -45 -36 -30c-2,-1 -2,-3 -2,-5 1,-2 3,-3 5,-3l46 -3 17 -44c1,-2 3,-3 5,-3 2,0 4,1 4,3z"/>
 </g>
</svg>
